<?xml version="1.0" encoding="UTF-8" standalone="no"?>
<svg
        width="118"
        height="118"
        version="1.1"
        id="svg1"
        sodipodi:docname="canonical.svg"
        xml:space="preserve"
        inkscape:version="1.4.2 (1:1.4.2+202505120738+ebf0e940d0)"
        xmlns:inkscape="http://www.inkscape.org/namespaces/inkscape"
        xmlns:sodipodi="http://sodipodi.sourceforge.net/DTD/sodipodi-0.dtd"
        xmlns="http://www.w3.org/2000/svg"
><defs
       id="defs1" />
    <sodipodi:namedview
            id="namedview1"
            pagecolor="#ffffff"
            bordercolor="#666666"
            borderopacity="1.0"
            inkscape:showpageshadow="2"
            inkscape:pageopacity="0.0"
            inkscape:pagecheckerboard="0"
            inkscape:deskcolor="#d1d1d1"
            inkscape:zoom="2.14"
            inkscape:cx="26.9"
            inkscape:cy="94.9"
            inkscape:window-width="1716"
            inkscape:window-height="1403"
            inkscape:window-x="844"
            inkscape:window-y="501"
            inkscape:window-maximized="0"
            inkscape:current-layer="layer2"
    />
    <g
            inkscape:groupmode="layer"
            id="transitional"
            inkscape:label="Transitional"
            style="display:inline;opacity:1">
        <path
                d="M 0,59 C 3.93,21.6 23.6,1.97 59,0 C 59,0 59,0 59,0 C 59,0 59,0 59,0 C 59,0 59,0 59,0 C 94.4,2.95 114,22.6 118,59 C 115,93.4 94.4,114 59,118 C 23.6,114 3.93,93.4 0,59 Z"
                id="9_0__0"
                inkscape:label="9_0__0"
                style="display:inline;opacity:0.33;fill:#30df2b;fill-opacity:1;stroke:none;stroke-width:0.999662"
        />
        <path
                d="M 55.1,79.4 C 7.06,91.4 -0.942,11.4 56.1,18.4 C 65.1,20.4 95.1,35.4 76.1,71.4 C 76.1,71.4 43.1,118 43.1,118 C 43.1,118 27.1,100 27.1,100 C 27.1,100 59.1,54.4 59.1,54.4 C 78.1,18.4 49.1,2.43 39.1,0.43 C -16.9,-6.57 -8.94,74.4 39.1,62.4 Z"
                id="9_0__9"
                inkscape:label="9_0__9"
                style="display:inline;opacity:0.33;fill:#30df2b;fill-opacity:1;stroke:none"
        />
        <path
                d="M 55.2,79.4 C 7.06,91.4 -0.942,11.4 56.2,18.4 C 65.2,20.4 95.2,35.4 76.2,71.4 C 76.2,71.4 43.1,118 43.1,118 C 43.1,118 27.1,100 27.1,100 C 27.1,100 59.2,54.4 59.2,54.4 C 78.2,18.4 49.1,2.43 39.1,0.43 C -16.9,-6.6 -8.94,74.4 39.1,62.4 Z"
                id="8_9__9"
                inkscape:label="8_9__9"
                style="display:inline;opacity:0.33;fill:#2c36cd;fill-opacity:1;stroke:none"
        />
        <path
                d="M 18.1,56 C -6.92,68 -10.9,114 38.1,118 C 38.1,118 38.1,118 38.1,118 C 77.2,115 87.2,76 57.2,56 C 57.2,56 57.2,56 57.2,56 C 89.2,31 62.2,-0.98 37.1,0.02 C -3.92,4.02 -2.92,45 18.1,56 Z"
                id="8_9__8"
                inkscape:label="8_9__8"
                style="display:inline;opacity:0.33;fill:#30df2b;fill-opacity:1;stroke:none"
        />
        <path
                d="M 18.1,56 C -6.95,68 -10.9,114 38.4,118 C 38.4,118 38.4,118 38.4,118 C 77.4,115 87.4,75.5 57.4,56 C 57.4,56 57.4,56 57.4,56 C 89.4,31 62.4,-0.98 37.4,0.02 C -3.95,4.02 -2.95,45 18.1,56 Z"
                id="7_8__8"
                inkscape:label="7_8__8"
                style="display:inline;opacity:0.33;fill:#2c36cd;fill-opacity:1;stroke:none"
        />
        <path
                d="M 32.6,118 L 81.1,31.6 V 17.3 H 17.3 L 0,0 H 64.3 V 14.3 L 15.3,101 Z"
                id="7_8__7"
                inkscape:label="7_8__7"
                style="display:inline;opacity:0.33;fill:#30df2b;fill-opacity:1;stroke:none;stroke-width:1.00271"
                sodipodi:nodetypes="ccccccccc"
        />
        <path
                d="M 32.6,118 L 81.1,31.6 V 17.3 H 17.3 L 0,0 H 64.4 L 64.3,14.3 L 15.3,101 Z"
                id="6_7__7"
                inkscape:label="6_7__7"
                style="display:inline;opacity:0.33;fill:#2c36cd;fill-opacity:1;stroke:none;stroke-width:1.00271"
                sodipodi:nodetypes="ccccccccc"
        />
        <path
                d="M 25.5,37.6 C 74.2,25.7 81.7,107 25.5,100 C 16.6,97.7 -12.1,82.2 5.73,46.5 C 5.73,46.5 37.4,0 37.4,0 C 37.4,0 54.3,16.8 54.3,16.8 C 54.3,16.8 22.6,63.4 22.6,63.4 C 3.75,98.7 32.5,115 41.4,117 C 97.5,124 89.6,42.6 42.4,54.5 Z"
                id="6_7__6"
                inkscape:label="6_7__6"
                style="display:inline;opacity:0.33;fill:#30df2b;fill-opacity:1;stroke:none;stroke-width:0.99992"
        />
        <path
                d="M 25.6,37.7 C 74.1,25.8 82.1,107 25.6,100 C 16.6,98.3 -12.1,82.3 5.71,46.6 C 5.71,46.6 37.5,0 37.5,0 C 37.5,0 37.5,0 37.5,0 C 37.5,0 54.3,16.8 54.3,16.8 C 54.3,16.8 54.3,16.8 54.3,16.8 C 54.3,16.8 22.6,63.4 22.6,63.4 C 3.73,99.1 32.5,115 41.4,117 C 97.9,124 90,42.6 42.4,54.5 Z"
                id="5_6__6"
                inkscape:label="5_6__6"
                style="display:inline;opacity:0.33;fill:#2c36cd;fill-opacity:1;stroke:none;stroke-width:1.00028"
        />
        <path
                d="M 0,74 C 15,118 60,99.7 66,77 C 73,52 45,15.1 4,49 L 10,0 H 61 L 78,17.1 H 27 L 20,67 C 62,33 90.1,69.1 83.1,93.8 C 76.8,117 32,135 17,91 Z"
                id="5_6__5"
                inkscape:label="5_6__5"
                style="display:inline;opacity:0.33;fill:#30df2b;fill-opacity:1;stroke:none"
                sodipodi:nodetypes="csccccccscc"
        />
        <path
                d="M 0,74 C 15,118 60,100 66,77 C 73,52 45,15 4,49 C 4,49 10,0 10,0 C 10,0 61,0 61,0 C 61,0 78,17 78,17 C 78,17 78,17 78,17 C 78,17 27,17 27,17 C 27,17 27,17 27,17 C 27,17 20,67 20,67 C 62,33 90,69 83,94 C 77,117 32,135 17,91 Z"
                id="4_5__5"
                inkscape:label="4_5__5"
                style="display:inline;opacity:0.33;fill:#2c36cd;fill-opacity:1;stroke:none"
        />
        <path
                d="M 77.8,118 V 18.2 H 62.7 L 16.2,86.9 V 98 H 90.9 L 73.7,79.8 H 0 V 69.7 L 46,0 H 60.6 V 99.8 Z"
                id="4_5__4"
                inkscape:label="4_5__4"
                style="display:inline;opacity:0.33;fill:#30df2b;fill-opacity:1;stroke:none;stroke-width:1.00144"
                sodipodi:nodetypes="ccccccccccccc"
        />
        <path
                d="M 77.8,118 C 77.8,118 77.8,18.2 77.8,18.2 C 77.8,18.2 62.6,18.2 62.6,18.2 C 62.6,18.2 16.2,86.9 16.2,86.9 C 16.2,86.9 16.2,98 16.2,98 C 16.2,98 90.9,98 90.9,98 C 90.9,98 73.7,79.8 73.7,79.8 C 73.7,79.8 0,79.8 0,79.8 C 0,79.8 0,69.7 0,69.7 C 0,69.7 45.5,0 45.5,0 C 45.5,0 60.6,0 60.6,0 C 60.6,0 60.6,99.9 60.6,99.9 Z"
                id="3_4__4"
                inkscape:label="3_4__4"
                style="display:inline;opacity:0.33;fill:#2c36cd;fill-opacity:1;stroke:none;stroke-width:1.00144"
        />
        <path
                d="M 0,76.6 C 15,116 57,103 63,76.6 C 65,66.6 63,55.6 49,46.6 C 56,39.6 60,34.6 59,23.6 C 58,-0.42 18,-12.4 2,18.6 C 2,18.6 2,18.6 2,18.6 C 2,18.6 18,36.6 18,36.6 C 18,36.6 18,36.6 18,36.6 C 34,4.58 74,16.6 75,40.6 C 76,51.6 72,56.6 65,63.6 C 79,72.6 81,83.6 79,93.6 C 73,119 31,132 16,93.6 Z"
                id="3_4__3"
                inkscape:label="3_4__3"
                style="display:inline;opacity:0.33;fill:#30df2b;fill-opacity:1;stroke:none"
        />
        <path
                style="display:inline;opacity:0.33;fill:#2c36cd;fill-opacity:1;stroke:none"
                d="M 0,76.6 C 15,116 57,103 63,76.6 C 65,66.6 63,55.6 49,46.6 C 56,39.6 60,34.6 59,23.6 C 58,-0.43 18,-12.4 2,18.6 L 18,36.6 C 34,4.57 74,16.6 75,40.6 C 76,51.6 72,56.6 65,63.6 C 79,72.6 81,83.6 79,93.6 C 73,119 31,132 16,93.6 Z"
                id="2_3__3"
                inkscape:label="2_3__3"
        />
        <path
                style="display:inline;opacity:0.33;fill:#30df2b;fill-opacity:1;stroke:none"
                d="M 67,98 C 67,98 33,98 34,98 C 34,98 0,98 0,98 C 26,79 40,67 52,55 C 89,11 23,-24 1,21 L 17,38 C 39,-7.01 105,29 68,72 C 56,88 42,98 17,118 C 17,118 48,118 48,118 C 48,118 80,118 80,118 Z"
                id="2_3__2"
                inkscape:label="2_3__2"
        />
        <path
                style="display:inline;opacity:0.33;fill:#2c36cd;fill-opacity:1;stroke:none;stroke-opacity:1"
                d="M 67,98 H 0 C 26,79 40,67 52,55 C 89,11 23,-24 1,21 L 17,38 C 39,-7.03 105,29 68,72 C 56,88 42,98 17,118 H 80 Z"
                id="1_2__2"
                inkscape:label="1_2__2"
        />
        <path
                style="display:inline;opacity:0.33;fill:#30df2b;fill-opacity:1;stroke:none;stroke-width:0.999662;stroke-opacity:1"
                d="M 0,118 H 17.7 C 17.7,118 35.4,118 35.4,118 C 35.4,118 35.4,47.2 35.4,47.2 V 0 C 35.4,0 17.7,0 17.7,0 C 17.7,0 0,0 0,0 Z"
                id="1_2__1"
                inkscape:label="1_2__1"
        />
        <path
                style="display:inline;opacity:0.33;fill:#2c36cd;fill-opacity:1;stroke:none;stroke-width:0.983333;stroke-opacity:1"
                d="M 0,118 C 0,118 35.4,118 35.4,118 C 35.4,118 35.4,0 35.4,0 C 35.4,0 0,0 0,0 Z"
                id="0_1__1"
                inkscape:label="0_1__1"
        />
        <path
                style="display:inline;opacity:0.33;fill:#30df2b;fill-opacity:1;stroke:none;stroke-width:0.983333;stroke-opacity:1"
                d="M 0,59 C 3.93,21.6 23.7,2.04 59.1,0 C 94,2.93 114,22.6 118,59 C 115,93.4 94,114 59.1,118 C 23.7,114 3.93,93.4 0,59 Z"
                id="0_1__0"
                inkscape:label="0_1__0"
        />
    </g>
    <g
            inkscape:groupmode="layer"
            id="canonical"
            inkscape:label="Canonical"
            style="display:none;opacity:1">
        <path
                d="M 55.1,79.4 C 7.03,91.4 -0.97,11.4 56.1,18.4 C 65.2,20.4 95.2,35.4 76.2,71.4 L 43.1,118 L 27.1,100 L 59.1,54.4 C 78.2,18.4 49.1,2.43 39.1,0.43 C -16.9,-6.57 -8.97,74.4 39.1,62.4"
                id="canonical_9"
                inkscape:label="canonical_9"
                style="display:inline;opacity:0.33;fill:#9a3636;fill-opacity:1"
        />
        <path
                d="M 18.1,56 C -6.93,68 -10.9,114 38.1,118 C 38.1,118 38.1,118 38.1,118 C 77.3,115 87.3,76 57.1,56 C 57.1,56 57.1,56 57.1,56 C 89.3,31 62.1,-0.977 37.1,0.023 C -3.93,4.02 -2.93,45 18.1,56 Z"
                id="canonical_8"
                inkscape:label="canonical_8"
                style="display:inline;opacity:0.33;fill:#9a3636;fill-opacity:1"
        />
        <path
                d="M 32.6,118 L 81.1,31.6 V 17.3 H 17.3 L 0,0 H 64.3 V 14.3 L 15.3,101 Z"
                id="canonical_7"
                inkscape:label="canonical_7"
                style="display:inline;opacity:0.33;fill:#9a3636;fill-opacity:1;stroke-width:1.00271"
        />
        <path
                d="M 25.6,37.6 C 74.1,25.8 82.1,107 25.6,100 C 16.6,98.1 -12.1,82.3 5.7,46.6 C 5.7,46.6 37.4,0 37.4,0 C 37.4,0 37.4,0 37.4,0 C 37.4,0 54.3,16.8 54.3,16.8 C 54.3,16.8 54.3,16.8 54.3,16.8 C 54.3,16.8 22.6,63.4 22.6,63.4 C 3.71,99.1 32.5,115 41.4,117 C 98,124 90,42.6 42.4,54.5 Z"
                id="canonical_6"
                inkscape:label="canonical_6"
                style="display:inline;opacity:0.33;fill:#9a3636;fill-opacity:1;stroke-width:0.98531"
        />
        <path
                d="M 0,74 C 15,118 60,100 66,77 C 73,52 45,15 4,49 C 4,49 10,0 10,0 C 10,0 61,0 61,0 C 61,0 78,17 78,17 C 78,17 78,17 78,17 C 78,17 27,17 27,17 C 27,17 27,17 27,17 C 27,17 20,67 20,67 C 62,33 90,69 83,94 C 77,117 32,135 17,91 Z"
                id="canonical_5"
                inkscape:label="canonical_5"
                style="display:inline;opacity:0.33;fill:#9a3636;fill-opacity:1;stroke-width:0.999411"
        />
        <path
                d="M 77.8,118 V 18.2 H 62.6 L 16.2,86.9 V 98 H 90.9 L 73.7,79.8 H 0 V 69.7 L 45.5,0 H 60.6 V 100 Z"
                id="canonical_4"
                inkscape:label="canonical_4"
                style="display:inline;opacity:0.33;fill:#9a3636;fill-opacity:1;stroke-width:1.00144"
        />
        <path
                d="M 0,77 C 15,116 57.1,103 63.1,77 C 65.1,66.9 63.1,55.9 49.1,46.9 C 56.1,39.9 60.1,34.8 59.1,23.6 C 58.1,-0.388 18,-12.4 2,18.6 L 18,36.8 C 34,4.64 74.1,16.6 75.1,40.9 C 76.1,51.9 72.1,56.9 65.1,63.9 C 79.2,72.9 81.2,84 79.2,94 C 73.1,119 31.1,132 16,94 Z"
                id="canonical_3"
                inkscape:label="canonical_3"
                style="display:inline;opacity:0.33;fill:#9a3636;fill-opacity:1;stroke-width:1.00372"
        />
        <path
                d="M 67,98 H 0 C 26,79 40,67 52,55 C 89,11 23,-24 1,21 L 17,38 C 39,-7.07 105,29 68,72 C 56,88 42,98 17,118 H 80 Z"
                id="canonical_2"
                inkscape:label="canonical_2"
                style="display:inline;opacity:0.33;fill:#9a3636;fill-opacity:1;stroke-width:1.00029"
        />
        <path
                d="M 0,118 H 35.4 V 0 H 0 Z"
                id="canonical_1"
                inkscape:label="canonical_1"
                style="display:inline;opacity:0.33;fill:#9a3636;fill-opacity:1;stroke-width:0.983333"
        />
        <circle
                style="display:inline;opacity:0.33;fill:#9a3636;fill-opacity:1;stroke:none;stroke-width:1;stroke-linecap:round;stroke-dasharray:none;stroke-opacity:1"
                id="canonical_0"
                cx="59"
                cy="59"
                r="59"
                inkscape:label="canonical_0"
        /></g></svg>
